HIERARCHY
ROOT SpineBase
{
  OFFSET 0.000000 0.000000 0.000000
  CHANNELS 6 Xposition Yposition Zposition Zrotation Xrotation Yrotation
  JOINT SpineMid
  {
    OFFSET 0.000000 30.923388 0.000000
    CHANNELS 3 Zrotation Xrotation Yrotation
    JOINT SpineShoulder
    {
      OFFSET -0.066955 23.433980 -0.958119
      CHANNELS 3 Zrotation Xrotation Yrotation
      JOINT Neck
      {
        OFFSET -0.085663 7.846333 -0.679847
        CHANNELS 3 Zrotation Xrotation Yrotation
        JOINT Head
        {
          OFFSET 4.633378 9.991899 3.700928
          CHANNELS 3 Zrotation Xrotation Yrotation
          End Site
          {
            OFFSET 0 0 0
          }
        }
      }
      JOINT ShoulderLeft
      {
        OFFSET -4.286682 1.072888 -10.189317
        CHANNELS 3 Zrotation Xrotation Yrotation
        JOINT ElbowLeft
        {
          OFFSET -8.562568 -29.285826 -14.172929
          CHANNELS 3 Zrotation Xrotation Yrotation
          JOINT WristLeft
          {
            OFFSET 3.170746 -24.407376 -4.592198
            CHANNELS 3 Zrotation Xrotation Yrotation
            JOINT HandLeft
            {
              OFFSET -1.630917 -6.517479 -1.010235
              CHANNELS 3 Zrotation Xrotation Yrotation
              JOINT HandTipLeft
              {
                OFFSET -0.193634 -4.580361 1.555797
                CHANNELS 3 Zrotation Xrotation Yrotation
                End Site
                {
                  OFFSET 0 0 0
                }
              }
              JOINT ThumbLeft
              {
                OFFSET 2.976470 -2.593243 0.611929
                CHANNELS 3 Zrotation Xrotation Yrotation
                End Site
                {
                  OFFSET 0 0 0
                }
              }
            }
          }
        }
      }
      JOINT ShoulderRight
      {
        OFFSET 10.574239 -9.078135 5.578562
        CHANNELS 3 Zrotation Xrotation Yrotation
        JOINT ElbowRight
        {
          OFFSET -3.715318 -33.064263 1.268763
          CHANNELS 3 Zrotation Xrotation Yrotation
          JOINT WristRight
          {
            OFFSET -15.160482 -19.139028 -21.112388
            CHANNELS 3 Zrotation Xrotation Yrotation
            JOINT HandRight
            {
              OFFSET 0.829884 -5.924807 2.798456
              CHANNELS 3 Zrotation Xrotation Yrotation
              JOINT HandTipRight
              {
                OFFSET -0.643227 -0.295393 -1.265804
                CHANNELS 3 Zrotation Xrotation Yrotation
                End Site
                {
                  OFFSET 0 0 0
                }
              }
              JOINT ThumbRight
              {
                OFFSET -0.819299 0.559536 -1.891231
                CHANNELS 3 Zrotation Xrotation Yrotation
                End Site
                {
                  OFFSET 0 0 0
                }
              }
            }
          }
        }
      }
    }
  }
  JOINT HipLeft
  {
    OFFSET -5.656725 3.862367 -6.625779
    CHANNELS 3 Zrotation Xrotation Yrotation
    JOINT KneeLeft
    {
      OFFSET -9.378870 -16.816469 -27.265933
      CHANNELS 3 Zrotation Xrotation Yrotation
      JOINT AnkleLeft
      {
        OFFSET -13.735453 -21.598187 6.479607
        CHANNELS 3 Zrotation Xrotation Yrotation
        JOINT FootLeft
        {
          OFFSET 6.756399 -3.868418 -11.530412
          CHANNELS 3 Zrotation Xrotation Yrotation
          End Site
          {
            OFFSET 0 0 0
          }
        }
      }
    }
  }
  JOINT HipRight
  {
    OFFSET 4.557323 -0.363125 -1.042222
    CHANNELS 3 Zrotation Xrotation Yrotation
    JOINT KneeRight
    {
      OFFSET -6.533434 -28.662885 -3.179883
      CHANNELS 3 Zrotation Xrotation Yrotation
      JOINT AnkleRight
      {
        OFFSET -16.682213 -19.443490 5.636568
        CHANNELS 3 Zrotation Xrotation Yrotation
        JOINT FootRight
        {
          OFFSET 8.108877 9.791132 -6.613371
          CHANNELS 3 Zrotation Xrotation Yrotation
          End Site
          {
            OFFSET 0 0 0
          }
        }
      }
    }
  }
}
MOTION
Frames: 9
Frame Time: 0.033333
62.018633 78.344313 403.385820 -2.200692 1.082064 44.107588 0.440711 0.437659 -44.161119 -0.104507 0.071715 -0.095022 18.759620 -14.075850 2.405887 0.000000 0.000000 0.000000 -16.324920 19.241662 5.283595 22.581553 -24.636737 1.931362 33.016537 -49.063165 30.546741 -7.967542 65.665861 -10.922563 0.000000 0.000000 0.000000 0.000000 0.000000 0.000000 -39.063768 46.275514 10.429295 107.088063 -44.200716 61.528065 -76.243508 50.657147 40.589404 111.473769 -61.888286 70.168128 0.000000 0.000000 0.000000 0.000000 0.000000 0.000000 2.582626 -5.042601 -48.785772 -1.612388 4.225394 3.024378 -43.036947 -29.839378 -124.303987 0.000000 0.000000 0.000000 -6.952449 -15.279390 -42.255954 -1.452579 4.739406 6.136361 16.175739 -6.202837 15.736479 0.000000 0.000000 0.000000
62.368060 72.903304 402.301538 -2.068027 1.031813 53.504274 0.406441 0.193710 -53.554448 -0.038987 -0.025922 -0.083590 16.283376 -11.123195 1.075839 0.000000 0.000000 0.000000 -16.591584 19.257141 5.386061 22.779707 -24.376436 1.825774 44.743964 -56.696775 44.447398 -12.042475 72.150379 -9.492116 0.000000 0.000000 0.000000 0.000000 0.000000 0.000000 -41.134355 46.987704 11.512501 109.836252 -43.552197 63.511262 -63.247979 45.997475 31.357758 44.486140 -59.486720 -22.787196 0.000000 0.000000 0.000000 0.000000 0.000000 0.000000 3.355712 -3.534455 -58.668173 -1.038348 0.977599 4.126908 10.298292 -26.606344 -99.069305 0.000000 0.000000 0.000000 -11.642989 -15.513842 -51.702260 -1.408829 7.635332 5.378537 21.232943 1.347705 11.266400 0.000000 0.000000 0.000000
63.370033 63.315498 406.935844 -0.900792 -4.851535 52.991101 0.417033 0.130025 -53.076104 -0.023784 0.064302 -0.069920 13.351488 -4.066202 -0.772949 0.000000 0.000000 0.000000 -18.634290 25.017015 7.328742 23.018077 -24.734770 1.967258 51.897993 -59.812758 53.109278 -9.375114 71.235693 -11.898041 0.000000 0.000000 0.000000 0.000000 0.000000 0.000000 -49.466206 52.020894 19.320448 117.982503 -41.986007 71.361194 -59.743850 46.251891 29.258927 32.026398 -53.519685 -39.196620 0.000000 0.000000 0.000000 0.000000 0.000000 0.000000 7.737990 1.886010 -58.117999 0.145312 -6.453606 8.086358 77.990923 16.083264 -81.028033 0.000000 0.000000 0.000000 -4.593221 -8.442967 -50.796269 -1.379313 3.986238 5.947488 26.728085 7.891833 6.715435 0.000000 0.000000 0.000000
64.368088 49.361893 412.389953 -2.190000 3.313762 54.799644 47.741407 36.498720 -70.781534 14.818260 -56.879858 7.507941 16.979447 -18.693624 5.591636 0.000000 0.000000 0.000000 -17.571468 23.761204 4.784908 24.140601 -23.988183 5.158875 64.965042 -64.183795 67.788318 -2.398624 66.220861 -17.188189 0.000000 0.000000 0.000000 0.000000 0.000000 0.000000 -44.553132 48.482087 12.870374 130.281909 -38.138536 84.077226 -59.434779 45.669864 26.798626 35.182560 -55.187937 -25.948670 0.000000 0.000000 0.000000 0.000000 0.000000 0.000000 -0.411996 -5.958469 -58.460886 3.139728 -20.069276 18.767157 91.215780 32.468480 -84.730955 0.000000 0.000000 0.000000 -9.361409 -13.295712 -53.575332 -2.025187 2.414016 6.275887 30.925252 14.871776 -1.133052 0.000000 0.000000 0.000000
64.032419 49.600273 404.440637 -3.094804 9.673520 32.893609 25.366530 42.856114 -42.156759 8.914855 -49.106937 3.506934 17.004854 -22.500677 6.208208 0.000000 0.000000 0.000000 -15.908440 16.832519 2.938697 24.003890 -24.286420 4.451002 60.933674 -63.099864 63.272784 2.137441 60.387479 -19.662861 0.000000 0.000000 0.000000 0.000000 0.000000 0.000000 -41.284685 45.849726 8.207807 143.998418 -30.248634 100.075868 -66.778592 61.107057 34.406945 38.861773 -59.855832 -1.850908 0.000000 0.000000 0.000000 0.000000 0.000000 0.000000 -4.411762 -19.602806 -34.811509 15.971607 -38.396963 43.026345 105.181666 17.615306 -108.579651 0.000000 0.000000 0.000000 -5.514783 -22.518665 -31.352826 -3.334892 2.734192 6.448515 33.681791 19.964077 -8.527520 0.000000 0.000000 0.000000
62.099365 55.915968 390.680138 -3.802031 15.314365 -26.384198 28.869001 -32.115892 35.170823 -9.204994 40.534683 3.418064 14.505620 -17.519808 1.148588 0.000000 0.000000 0.000000 -14.029972 3.522672 1.829806 22.385618 -24.710568 0.052486 40.915044 -55.099620 41.725126 8.018076 48.334987 -20.139764 0.000000 0.000000 0.000000 0.000000 0.000000 0.000000 -40.121036 48.085417 6.050800 156.705579 -14.411415 118.356809 -154.831057 72.290108 117.825807 68.250594 -71.786965 31.019674 0.000000 0.000000 0.000000 0.000000 0.000000 0.000000 31.618966 -29.900753 39.274744 28.488731 -41.328815 61.486520 108.572634 1.356869 -125.070626 0.000000 0.000000 0.000000 23.558291 -20.473391 34.130618 -5.176793 4.254949 6.693292 35.313154 24.825521 -17.455627 0.000000 0.000000 0.000000
57.670506 71.687770 366.075772 1.105898 -14.340228 -53.423987 37.364698 -16.853060 58.951526 -9.191652 42.407219 3.784137 3.240246 43.465342 -16.766168 0.000000 0.000000 0.000000 -15.565446 11.048073 9.854594 16.704323 -20.651937 -9.542974 34.306839 -46.053101 33.663506 22.983919 42.106809 -29.232686 0.000000 0.000000 0.000000 0.000000 0.000000 0.000000 -71.670978 60.791181 40.391629 160.356852 -5.849545 130.686456 154.661923 48.113113 166.224693 121.143676 -74.125678 88.459408 0.000000 0.000000 0.000000 0.000000 0.000000 0.000000 35.827967 -8.509998 63.246735 24.984041 -29.068235 58.938244 103.768312 1.500890 -135.073925 0.000000 0.000000 0.000000 10.443691 2.522505 56.323812 -7.069719 11.811402 6.042422 35.309385 30.859953 -30.455299 0.000000 0.000000 0.000000
51.101934 97.355384 326.633516 -0.410838 -8.770732 -69.889647 49.201041 -7.711739 72.677542 -13.475637 52.809344 7.097652 2.534843 56.938579 -23.448788 0.000000 0.000000 0.000000 -2.125523 -28.979225 12.561210 5.019006 -2.432916 -20.199225 29.347234 -32.028029 24.643468 31.343810 32.730841 -31.444759 0.000000 0.000000 0.000000 0.000000 0.000000 0.000000 -52.600636 52.270555 21.014262 160.537864 -3.368090 138.534926 144.670471 36.050637 173.872878 139.897075 -69.608083 103.354086 0.000000 0.000000 0.000000 0.000000 0.000000 0.000000 69.495186 1.956303 81.640942 17.508259 -9.662749 48.223166 31.967585 75.245951 -95.256539 0.000000 0.000000 0.000000 27.128187 3.670604 74.470801 -8.674328 23.754322 4.802931 38.824858 38.015271 -48.316337 0.000000 0.000000 0.000000
42.408284 126.204469 271.854833 -35.750491 72.721137 -53.417195 135.679001 -1.169364 80.444743 -172.118089 36.339773 158.363118 14.101465 -19.676335 -15.491955 0.000000 0.000000 0.000000 169.308314 -30.754973 171.475096 -8.638389 15.957638 -19.157919 27.429421 -18.346237 17.887735 36.648386 25.941760 -32.035479 0.000000 0.000000 0.000000 0.000000 0.000000 0.000000 -30.939587 -52.887858 -39.774299 147.905569 -26.123842 127.728608 140.068750 28.295968 178.230273 162.111049 -58.941706 116.811037 0.000000 0.000000 0.000000 0.000000 0.000000 0.000000 174.298458 14.359881 86.126695 14.436361 6.121523 41.195071 -65.577911 54.447055 3.674582 0.000000 0.000000 0.000000 123.143407 8.453340 85.384300 -10.899667 36.116996 3.940649 53.912514 50.827733 -99.444959 0.000000 0.000000 0.000000
